<svg height="100" width="100" xmlns="http://www.w3.org/2000/svg"><path d="M69.7 42.4c1 1 2.6 1 3.5 0 1-1 1-2.6 0-3.5L54.4 20.1V9.8L69.7 25c1 1 2.6 1 3.5 0 1-1 1-2.6 0-3.5L53.7 2c-.1-.1-.2-.2-.4-.3-.1 0-.1-.1-.2-.1s-.2-.1-.3-.1c-.1 0-.2-.1-.2-.1-.1 0-.1-.1-.2-.1-.3-.1-.7-.1-1 0-.1 0-.1 0-.2.1-.1 0-.2 0-.2.1-.1 0-.2.1-.3.1-.1 0-.1.1-.2.1-.1.1-.3.2-.4.3L30.2 21.9c-1 1-1 2.6 0 3.5.5.5 1.1.7 1.8.7s1.3-.2 1.8-.7L49.4 9.8v10.3L30.2 39.3c-1 1-1 2.6 0 3.5.5.5 1.1.7 1.8.7s1.3-.2 1.8-.7l15.7-15.7v10.3L30.2 56.7c-1 1-1 2.6 0 3.5.5.5 1.1.7 1.8.7s1.3-.2 1.8-.7l15.7-15.7v51.7c0 1.4 1.1 2.5 2.5 2.5s2.5-1.1 2.5-2.5V44.6l15.2 15.2c1 1 2.6 1 3.5 0s1-2.6 0-3.5L54.4 37.5V27.2l15.3 15.2z"/></svg>